<svg xmlns="http://www.w3.org/2000/svg" xmlns:xlink="http://www.w3.org/1999/xlink">
    <symbol id="you" width="19" height="15" viewBox="0 0 19 15" fill="white">
        <path
            d="M18.1925 2.2275C17.6771 1.31075 17.1178 1.14213 15.979 1.078C14.8414 1.00081 11.9807 0.96875 9.50237 0.96875C7.01931 0.96875 4.15744 1.00081 3.021 1.07681C1.88456 1.14213 1.32406 1.30956 0.803937 2.2275C0.273125 3.14306 0 4.72006 0 7.49644C0 7.49881 0 7.5 0 7.5C0 7.50238 0 7.50356 0 7.50356V7.50594C0 10.2704 0.273125 11.8593 0.803937 12.7654C1.32406 13.6821 1.88337 13.8484 3.01981 13.9256C4.15744 13.9921 7.01931 14.0312 9.50237 14.0312C11.9807 14.0312 14.8414 13.9921 15.9802 13.9267C17.119 13.8496 17.6783 13.6833 18.1937 12.7666C18.7292 11.8605 19 10.2716 19 7.50712C19 7.50712 19 7.50356 19 7.50119C19 7.50119 19 7.49881 19 7.49763C19 4.72006 18.7292 3.14306 18.1925 2.2275ZM7.125 11.0625V3.9375L13.0625 7.5L7.125 11.0625Z" />
    </symbol>
    <symbol id="face" width="12" height="19" viewBox="0 0 12 19" fill="white">
        <path
            d="M10.4688 10.6875L11.002 7.24895H7.66788V5.01756C7.66788 4.07684 8.13363 3.15986 9.62688 3.15986H11.1426V0.232305C11.1426 0.232305 9.76713 0 8.452 0C5.70625 0 3.9115 1.64691 3.9115 4.62828V7.24895H0.859375V10.6875H3.9115V19H7.66788V10.6875H10.4688Z" />
    </symbol>
    <symbol id="insta" width="18" height="17" viewBox="0 0 18 17" fill="white">
        <path
            d="M9.00508 4.23306C6.44972 4.23306 4.38856 6.13677 4.38856 8.49692C4.38856 10.8571 6.44972 12.7608 9.00508 12.7608C11.5604 12.7608 13.6216 10.8571 13.6216 8.49692C13.6216 6.13677 11.5604 4.23306 9.00508 4.23306ZM9.00508 11.269C7.35374 11.269 6.00374 10.0258 6.00374 8.49692C6.00374 6.96802 7.34972 5.72485 9.00508 5.72485C10.6604 5.72485 12.0064 6.96802 12.0064 8.49692C12.0064 10.0258 10.6564 11.269 9.00508 11.269ZM14.8872 4.05864C14.8872 4.61157 14.4051 5.05317 13.8104 5.05317C13.2118 5.05317 12.7336 4.60786 12.7336 4.05864C12.7336 3.50942 13.2158 3.06411 13.8104 3.06411C14.4051 3.06411 14.8872 3.50942 14.8872 4.05864ZM17.9448 5.06802C17.8765 3.73579 17.547 2.55571 16.4903 1.58345C15.4377 0.611182 14.16 0.306885 12.7176 0.240088C11.231 0.162158 6.77517 0.162158 5.28856 0.240088C3.85017 0.303174 2.57249 0.607471 1.51579 1.57974C0.459096 2.552 0.13365 3.73208 0.0613281 5.06431C-0.0230469 6.43735 -0.0230469 10.5528 0.0613281 11.9258C0.129632 13.2581 0.459096 14.4381 1.51579 15.4104C2.57249 16.3827 3.84615 16.687 5.28856 16.7538C6.77517 16.8317 11.231 16.8317 12.7176 16.7538C14.16 16.6907 15.4377 16.3864 16.4903 15.4104C17.543 14.4381 17.8725 13.2581 17.9448 11.9258C18.0292 10.5528 18.0292 6.44106 17.9448 5.06802ZM16.0243 13.3991C15.7109 14.1264 15.1042 14.6868 14.3127 14.9799C13.1274 15.4141 10.3149 15.3139 9.00508 15.3139C7.69526 15.3139 4.87874 15.4104 3.69749 14.9799C2.90999 14.6905 2.30329 14.1301 1.98588 13.3991C1.51579 12.3043 1.62427 9.70669 1.62427 8.49692C1.62427 7.28716 1.51981 4.68579 1.98588 3.59478C2.29927 2.86743 2.90597 2.30708 3.69749 2.01392C4.88276 1.57974 7.69526 1.67993 9.00508 1.67993C10.3149 1.67993 13.1314 1.58345 14.3127 2.01392C15.1002 2.30337 15.7069 2.86372 16.0243 3.59478C16.4944 4.6895 16.3859 7.28716 16.3859 8.49692C16.3859 9.70669 16.4944 12.3081 16.0243 13.3991Z" />
    </symbol>
    <symbol id="twitt" width="19" height="17" viewBox="0 0 19 17" fill="#E5E5E5">
        <path
            d="M17.0469 4.63095C17.059 4.79972 17.059 4.96853 17.059 5.13731C17.059 10.2851 13.1409 16.2166 5.97969 16.2166C3.77347 16.2166 1.72399 15.5776 0 14.4685C0.313463 14.5047 0.614828 14.5167 0.940352 14.5167C2.76075 14.5167 4.43654 13.9019 5.77474 12.8531C4.06281 12.8169 2.62816 11.6957 2.13386 10.1525C2.375 10.1887 2.6161 10.2128 2.8693 10.2128C3.2189 10.2128 3.56855 10.1646 3.89404 10.0802C2.10978 9.7185 0.771541 8.15126 0.771541 6.25849V6.21029C1.28992 6.49963 1.89276 6.68046 2.53168 6.70455C1.48282 6.00529 0.795662 4.81178 0.795662 3.46152C0.795662 2.73819 0.98852 2.07512 1.3261 1.49643C3.24299 3.85937 6.12435 5.40249 9.35527 5.5713C9.29501 5.28196 9.25883 4.98059 9.25883 4.67919C9.25883 2.53323 10.9949 0.785156 13.1529 0.785156C14.274 0.785156 15.2867 1.25533 15.998 2.01485C16.8781 1.84608 17.722 1.52055 18.4695 1.0745C18.1801 1.97871 17.5653 2.73822 16.7576 3.22042C17.5412 3.13607 18.3007 2.91902 18.9999 2.61765C18.4696 3.3892 17.8065 4.07635 17.0469 4.63095Z" />
    </symbol>
    <symbol id="challenge" width="16" height="16" viewBox="0 0 16 16" fill="white">
        <path
            d="M13.7143 6.04914V4.004C13.7143 4.00171 13.7143 3.99886 13.7143 3.99657V0.571429C13.7143 0.255429 13.4589 0 13.1429 0H9.14286C8.90343 0 8.68971 0.149143 8.60686 0.373143C8.52343 0.597714 8.58914 0.849714 8.77086 1.00457L12.5714 4.26286V6.04914L7.42857 11.192L4.97543 8.73886C4.752 8.51543 4.39086 8.51543 4.16743 8.73886L0.167429 12.7389C0.06 12.8457 0 12.9909 0 13.1429V15.4286C0 15.7446 0.255429 16 0.571429 16H15.4286C15.7446 16 16 15.7446 16 15.4286V8.57143C16 8.41943 15.94 8.27429 15.8326 8.16743L13.7143 6.04914ZM10.6874 1.14286H12.5714V2.75771L10.6874 1.14286ZM14.8571 14.8571H1.14286V13.3794L4.57143 9.95086L7.02457 12.404C7.248 12.6274 7.60914 12.6274 7.83257 12.404L13.1429 7.09371L14.8571 8.808V14.8571Z" />
    </symbol>
    <symbol id="learning" width="16" height="12" viewBox="0 0 16 12" fill="white">
        <path
            d="M15.9588 3.27559C15.9889 3.20875 16.0029 3.13498 15.9995 3.06099C15.9968 3.00332 15.9768 2.8037 15.8231 2.65572C15.7215 2.55781 15.5876 2.50841 15.4481 2.51757C15.0985 2.54082 14.8417 2.47219 14.7231 2.32846C14.5904 2.16796 14.5979 1.87535 14.6327 1.63863L15.0132 0.792316C15.1064 0.61371 15.0997 0.362455 14.9202 0.170884C14.7833 0.0249146 14.6119 -0.0126397 14.4738 0.00345491H5.07538C4.28823 0.00345491 3.45916 0.687924 3.1073 1.35943L0.191052 7.27913C0.190843 7.2798 0.190634 7.28047 0.190426 7.28092C0.0698715 7.5087 0 7.77069 0 8.05055V10.4352C0 11.2979 0.655123 12 1.46 12H11.6452C11.6788 12 11.7063 11.996 11.7363 11.9937C11.7543 11.9962 11.7724 12 11.7903 12C11.9098 12 12.0248 11.9439 12.1044 11.8455C12.1374 11.8093 12.1597 11.7684 12.1758 11.7262L15.9588 3.27559ZM3.84001 1.78683C4.08383 1.3212 4.67263 0.897378 5.07538 0.897378H14.0402L11.5282 6.4858H1.52507L3.84001 1.78683ZM9.42263 11.1059H1.46C1.11502 11.1059 0.834286 10.805 0.834286 10.4352V8.05055C0.834286 7.68082 1.11502 7.37994 1.46 7.37994H9.42284C8.9959 7.86748 8.73393 8.52289 8.73393 9.2429C8.73393 9.96291 8.99569 10.6183 9.42263 11.1059ZM9.56822 9.2429C9.56822 8.23363 10.3343 7.41258 11.276 7.41258C11.7618 7.41258 12.1238 7.40945 12.1931 7.06699L14.0732 2.88484C14.0821 2.89647 14.0894 2.90921 14.0988 2.92061C14.3105 3.17678 14.6063 3.3346 14.9817 3.39138L11.5411 11.0766C11.4575 11.0739 11.3701 11.073 11.276 11.073C10.3341 11.073 9.56822 10.2519 9.56822 9.2429Z" />
    </symbol>
    <symbol id="letter" width="16" height="12" viewBox="0 0 16 12" fill="white">
        <path
            d="M0.329548 0C0.150791 0.0168475 -0.000771265 0.184088 2.95316e-06 0.363636V11.6364C2.19713e-05 11.8268 0.173245 12 0.363639 12H15.6364C15.8268 12 16 11.8268 16 11.6364V0.363636C16 0.173242 15.8268 1.90909e-05 15.6364 0C10.5348 0 5.42873 0 0.329548 0ZM0.954548 0.727273H15.0455L8 6.44318L0.954548 0.727273ZM0.727276 1.48295L6.43182 6.10227L0.727276 10.6591V1.48295ZM15.2727 1.48295V10.6591L9.56818 6.10227L15.2727 1.48295ZM7.00568 6.56818L7.77273 7.1875C7.9005 7.28978 8.09951 7.28978 8.22727 7.1875L8.99432 6.56818L14.875 11.2727H1.125L7.00568 6.56818Z" />
    </symbol>
    <symbol id="class" width="16" height="16" viewBox="0 0 16 16" fill="white">
        <path
            d="M15.1999 1.06667H13.3332V0.266667C13.3332 0.1192 13.214 0 13.0665 0H11.1999C11.0524 0 10.9332 0.1192 10.9332 0.266667V1.06667H5.06654V0.266667C5.06654 0.1192 4.94734 0 4.79987 0H2.9332C2.78574 0 2.66654 0.1192 2.66654 0.266667V1.06667H0.79987C0.652403 1.06667 0.533203 1.18587 0.533203 1.33333V4.26667V15.7333C0.533203 15.8808 0.652403 16 0.79987 16H15.1999C15.3473 16 15.4665 15.8808 15.4665 15.7333V4.26667V1.33333C15.4665 1.18587 15.3473 1.06667 15.1999 1.06667ZM11.4665 0.533333H12.7999V1.33333V2.13333H11.4665V1.33333V0.533333ZM3.19987 0.533333H4.5332V1.33333V2.13333H3.19987V1.33333V0.533333ZM1.06654 1.6H2.66654V2.4C2.66654 2.54747 2.78574 2.66667 2.9332 2.66667H4.79987C4.94734 2.66667 5.06654 2.54747 5.06654 2.4V1.6H10.9332V2.4C10.9332 2.54747 11.0524 2.66667 11.1999 2.66667H13.0665C13.214 2.66667 13.3332 2.54747 13.3332 2.4V1.6H14.9332V4H1.06654V1.6ZM1.06654 15.4667V4.53333H14.9332V15.4667H1.06654Z" />
        <path
            d="M10.1336 6.13281H8.26693H7.73359H5.86693H5.33359H2.93359V8.53281V9.06615V10.9328V11.4661V13.8661H5.33359H5.86693H7.73359H8.26693H10.1336H10.6669H13.0669V11.4661V10.9328V9.06615V8.53281V6.13281H10.6669H10.1336ZM8.26693 6.66615H10.1336V8.53281H8.26693V6.66615ZM10.1336 10.9328H8.26693V9.06615H10.1336V10.9328ZM5.86693 9.06615H7.73359V10.9328H5.86693V9.06615ZM5.86693 6.66615H7.73359V8.53281H5.86693V6.66615ZM3.46693 6.66615H5.33359V8.53281H3.46693V6.66615ZM3.46693 9.06615H5.33359V10.9328H3.46693V9.06615ZM5.33359 13.3328H3.46693V11.4661H5.33359V13.3328ZM7.73359 13.3328H5.86693V11.4661H7.73359V13.3328ZM10.1336 13.3328H8.26693V11.4661H10.1336V13.3328ZM12.5336 13.3328H10.6669V11.4661H12.5336V13.3328ZM12.5336 10.9328H10.6669V9.06615H12.5336V10.9328ZM12.5336 6.66615V8.53281H10.6669V6.66615H12.5336Z" />
    </symbol>
    <symbol id="window" width="30" height="33" viewBox="0 0 30 33" fill="white">
        <path
            d="M0 4.69974L12.26 2.87786L12.2654 15.7815L0.0111995 15.8577L0 4.69974ZM12.2542 17.2683L12.2637 30.1831L0.00951616 28.3448L0.00882908 17.1816L12.2542 17.2683ZM13.7404 2.63953L29.9962 0.0507812V15.6174L13.7404 15.7582V2.63953ZM30 17.3897L29.9962 32.8862L13.7404 30.3828L13.7176 17.3607L30 17.3897Z" />
    </symbol>
    <symbol id="apple" width="26" height="30" viewBox="0 0 26 30" fill="white">
        <path
            d="M18.4406 0.0232229C17.0419 0.184744 15.0624 1.41849 14.0795 2.73815C13.5125 3.4942 13.1791 4.21589 12.8904 5.30186L12.7461 5.84485L12.753 6.4222C12.7598 6.73837 12.777 7.03392 12.7942 7.08203C12.8389 7.19544 12.9248 7.21262 13.5296 7.21606C14.0314 7.21949 14.0623 7.21606 14.4919 7.0889C15.6397 6.75555 16.4817 6.25381 17.0797 5.54243C17.224 5.36716 17.4405 5.13347 17.5539 5.01662C17.9319 4.64547 18.4165 3.82068 18.6846 3.10587C18.9526 2.38761 19.0729 1.72091 19.1073 0.772405L19.1279 0.164124L19.0385 0.0747719C18.9389 -0.0248899 18.8839 -0.0283265 18.4406 0.0232229Z" />
        <path
            d="M18.1213 7.12576C17.4409 7.16013 15.6092 7.66875 14.2929 8.18424C13.4956 8.49697 13.4956 8.49697 13.3376 8.52446C13.0626 8.56914 12.3891 8.37325 11.2309 7.90587C10.6158 7.66187 9.98342 7.4763 9.04867 7.26323C8.65689 7.17731 8.00737 7.167 7.72557 7.24604C7.61216 7.27697 7.25475 7.34914 6.93171 7.40413C6.23751 7.52785 5.84574 7.64813 5.32337 7.90587C3.74597 8.67567 2.67031 9.78226 1.81803 11.5143C1.44 12.2772 1.16163 13.023 0.955435 13.8169C0.649577 14.9956 0.642703 17.2569 0.941689 18.6281C0.976055 18.7965 1.00698 18.9958 1.00698 19.0749C1.00698 19.2398 1.03791 19.3635 1.32659 20.5011C1.59465 21.5527 1.56715 21.4668 2.07921 22.7521C2.79746 24.5563 3.02428 24.9549 4.49171 26.9791C5.09312 27.8073 5.39898 28.1853 5.8423 28.6355C6.30625 29.1098 6.68084 29.3847 7.21008 29.6459C7.80805 29.938 8.06923 30.0033 8.61909 29.9999C9.32359 29.9999 9.89064 29.8555 10.9697 29.4019C11.6502 29.1167 11.6949 29.1029 12.932 28.8486C13.3032 28.7696 13.6469 28.7764 14.1692 28.8624C14.3479 28.8898 14.616 28.9311 14.7603 28.9517C15.0524 28.9929 15.348 29.0892 16.1109 29.395C17.0319 29.7662 17.6814 29.9311 18.3619 29.9724C19.3516 30.0342 20.307 29.5944 21.3277 28.6149C22.369 27.608 23.3415 26.2299 24.3244 24.3707C24.589 23.869 25.0117 22.8414 25.0839 22.5321C25.1148 22.4084 25.1664 22.2537 25.2042 22.1919C25.2386 22.13 25.2695 22.0441 25.2695 22.0063C25.2695 21.8826 25.0186 21.6867 24.5753 21.4633C23.7402 21.0337 22.9188 20.2983 22.3655 19.4701C21.9703 18.8755 21.5717 17.9855 21.472 17.4597C21.3036 16.5936 21.2555 15.6451 21.3517 14.9853C21.3758 14.8135 21.4617 14.4526 21.5442 14.1777C21.8982 12.9852 22.1422 12.5075 22.6955 11.9164C22.8639 11.7411 23.0013 11.5796 23.0013 11.5659C23.0013 11.5074 23.8433 10.8029 24.0495 10.6895C24.1629 10.6242 24.3072 10.5246 24.3691 10.4627C24.5581 10.2771 24.5306 10.205 24.0564 9.64824C23.4206 8.90249 22.6199 8.29077 21.6782 7.8337C21.0906 7.54847 20.685 7.40756 20.118 7.29072C19.5372 7.167 18.6712 7.09483 18.1213 7.12576Z" />
    </symbol>
</svg>