<svg xmlns="http://www.w3.org/2000/svg" xmlns:xlink="http://www.w3.org/1999/xlink">
    <symbol id="you" width="19" height="15" viewBox="0 0 19 15" fill="none">
        <path
            d="M18.1925 2.2275C17.6771 1.31075 17.1178 1.14213 15.979 1.078C14.8414 1.00081 11.9807 0.96875 9.50237 0.96875C7.01931 0.96875 4.15744 1.00081 3.021 1.07681C1.88456 1.14213 1.32406 1.30956 0.803937 2.2275C0.273125 3.14306 0 4.72006 0 7.49644C0 7.49881 0 7.5 0 7.5C0 7.50238 0 7.50356 0 7.50356V7.50594C0 10.2704 0.273125 11.8593 0.803937 12.7654C1.32406 13.6821 1.88337 13.8484 3.01981 13.9256C4.15744 13.9921 7.01931 14.0312 9.50237 14.0312C11.9807 14.0312 14.8414 13.9921 15.9802 13.9267C17.119 13.8496 17.6783 13.6833 18.1937 12.7666C18.7292 11.8605 19 10.2716 19 7.50712C19 7.50712 19 7.50356 19 7.50119C19 7.50119 19 7.49881 19 7.49763C19 4.72006 18.7292 3.14306 18.1925 2.2275ZM7.125 11.0625V3.9375L13.0625 7.5L7.125 11.0625Z"
            fill="white" />
    </symbol>
    <symbol id="face" width="12" height="19" viewBox="0 0 12 19" fill="none">
        <path
            d="M10.4688 10.6875L11.002 7.24895H7.66788V5.01756C7.66788 4.07684 8.13363 3.15986 9.62688 3.15986H11.1426V0.232305C11.1426 0.232305 9.76713 0 8.452 0C5.70625 0 3.9115 1.64691 3.9115 4.62828V7.24895H0.859375V10.6875H3.9115V19H7.66788V10.6875H10.4688Z"
            fill="white" />
    </symbol>
    <symbol id="insta" width="18" height="17" viewBox="0 0 18 17" fill="none">
        <path
            d="M9.00508 4.23306C6.44972 4.23306 4.38856 6.13677 4.38856 8.49692C4.38856 10.8571 6.44972 12.7608 9.00508 12.7608C11.5604 12.7608 13.6216 10.8571 13.6216 8.49692C13.6216 6.13677 11.5604 4.23306 9.00508 4.23306ZM9.00508 11.269C7.35374 11.269 6.00374 10.0258 6.00374 8.49692C6.00374 6.96802 7.34972 5.72485 9.00508 5.72485C10.6604 5.72485 12.0064 6.96802 12.0064 8.49692C12.0064 10.0258 10.6564 11.269 9.00508 11.269ZM14.8872 4.05864C14.8872 4.61157 14.4051 5.05317 13.8104 5.05317C13.2118 5.05317 12.7336 4.60786 12.7336 4.05864C12.7336 3.50942 13.2158 3.06411 13.8104 3.06411C14.4051 3.06411 14.8872 3.50942 14.8872 4.05864ZM17.9448 5.06802C17.8765 3.73579 17.547 2.55571 16.4903 1.58345C15.4377 0.611182 14.16 0.306885 12.7176 0.240088C11.231 0.162158 6.77517 0.162158 5.28856 0.240088C3.85017 0.303174 2.57249 0.607471 1.51579 1.57974C0.459096 2.552 0.13365 3.73208 0.0613281 5.06431C-0.0230469 6.43735 -0.0230469 10.5528 0.0613281 11.9258C0.129632 13.2581 0.459096 14.4381 1.51579 15.4104C2.57249 16.3827 3.84615 16.687 5.28856 16.7538C6.77517 16.8317 11.231 16.8317 12.7176 16.7538C14.16 16.6907 15.4377 16.3864 16.4903 15.4104C17.543 14.4381 17.8725 13.2581 17.9448 11.9258C18.0292 10.5528 18.0292 6.44106 17.9448 5.06802ZM16.0243 13.3991C15.7109 14.1264 15.1042 14.6868 14.3127 14.9799C13.1274 15.4141 10.3149 15.3139 9.00508 15.3139C7.69526 15.3139 4.87874 15.4104 3.69749 14.9799C2.90999 14.6905 2.30329 14.1301 1.98588 13.3991C1.51579 12.3043 1.62427 9.70669 1.62427 8.49692C1.62427 7.28716 1.51981 4.68579 1.98588 3.59478C2.29927 2.86743 2.90597 2.30708 3.69749 2.01392C4.88276 1.57974 7.69526 1.67993 9.00508 1.67993C10.3149 1.67993 13.1314 1.58345 14.3127 2.01392C15.1002 2.30337 15.7069 2.86372 16.0243 3.59478C16.4944 4.6895 16.3859 7.28716 16.3859 8.49692C16.3859 9.70669 16.4944 12.3081 16.0243 13.3991Z"
            fill="white" />
    </symbol>
    <symbol id="twitt" width="19" height="17" viewBox="0 0 19 17" fill="none">
        <path
            d="M17.0469 4.63095C17.059 4.79972 17.059 4.96853 17.059 5.13731C17.059 10.2851 13.1409 16.2166 5.97969 16.2166C3.77347 16.2166 1.72399 15.5776 0 14.4685C0.313463 14.5047 0.614828 14.5167 0.940352 14.5167C2.76075 14.5167 4.43654 13.9019 5.77474 12.8531C4.06281 12.8169 2.62816 11.6957 2.13386 10.1525C2.375 10.1887 2.6161 10.2128 2.8693 10.2128C3.2189 10.2128 3.56855 10.1646 3.89404 10.0802C2.10978 9.7185 0.771541 8.15126 0.771541 6.25849V6.21029C1.28992 6.49963 1.89276 6.68046 2.53168 6.70455C1.48282 6.00529 0.795662 4.81178 0.795662 3.46152C0.795662 2.73819 0.98852 2.07512 1.3261 1.49643C3.24299 3.85937 6.12435 5.40249 9.35527 5.5713C9.29501 5.28196 9.25883 4.98059 9.25883 4.67919C9.25883 2.53323 10.9949 0.785156 13.1529 0.785156C14.274 0.785156 15.2867 1.25533 15.998 2.01485C16.8781 1.84608 17.722 1.52055 18.4695 1.0745C18.1801 1.97871 17.5653 2.73822 16.7576 3.22042C17.5412 3.13607 18.3007 2.91902 18.9999 2.61765C18.4696 3.3892 17.8065 4.07635 17.0469 4.63095Z"
            fill="#E5E5E5" />
    </symbol>
</svg>