<svg width="70" height="70" viewBox="0 0 70 70" fill="none" xmlns="http://www.w3.org/2000/svg">
    <path
        d="M69.4492 57.514H55.7446L55.8016 57.267C55.8018 57.2666 55.8019 57.2661 55.802 57.2657C55.8251 57.1677 55.8477 57.0533 55.8682 56.9491C55.8793 56.8925 55.8899 56.8389 55.8996 56.7927L55.8996 56.7927L55.9005 56.7882C55.9067 56.7572 55.9134 56.7248 55.9203 56.6912C55.9463 56.564 55.9758 56.4201 55.9988 56.2745L56.0899 55.7505L56.0911 55.7434L56.0922 55.7362L56.1718 55.1858C56.1928 55.0572 56.2093 54.91 56.2238 54.7796C56.2313 54.7124 56.2383 54.6497 56.2452 54.5962L56.2452 54.5962L56.2457 54.5923C56.2562 54.5053 56.2667 54.4177 56.2771 54.3301L56.2811 54.2966L56.282 54.2886L56.2827 54.2806L56.3087 53.983L56.3089 53.9817L56.3299 53.7493C56.3339 53.7435 56.3376 53.7375 56.3412 53.7314C56.3456 53.7062 56.3495 53.6721 56.3501 53.6633C56.3508 53.6523 56.351 53.6434 56.351 53.6431L56.351 53.6428L56.3519 53.6231L56.352 53.6214L56.3601 53.4289C56.3601 53.4289 56.3601 53.4289 56.3601 53.4288C56.3637 53.3456 56.3673 53.2621 56.3708 53.1786C56.3783 53.0046 56.3858 52.8302 56.3931 52.6558L56.4013 52.464L56.4014 52.4641L56.4016 52.4534L56.4043 52.3234L56.4044 52.3203L56.4114 52.0601L56.4115 52.0564L56.4205 51.7965L56.4206 51.7936L56.4258 51.6635L56.4263 51.6508L56.4261 51.638L56.4244 51.4877L56.4244 51.4842C56.4225 51.3791 56.4214 51.2704 56.4203 51.1598C56.4175 50.8694 56.4146 50.5654 56.3955 50.2766C56.3921 50.2096 56.3889 50.1369 56.3857 50.0623C56.3806 49.9435 56.3752 49.8199 56.3682 49.707L56.3684 49.707L56.3675 49.6966L56.323 49.1594C56.3069 48.902 56.276 48.6455 56.2487 48.4188C56.2372 48.3228 56.2263 48.2322 56.2174 48.1491L56.2174 48.1491L56.2169 48.1452L56.1912 47.9194L56.1913 47.9194L56.1902 47.911C56.1833 47.8583 56.1738 47.7981 56.166 47.7485C56.1624 47.7254 56.1591 47.7046 56.1566 47.688L56.1564 47.6862L56.0959 47.2895L56.0956 47.288C56.0901 47.2527 56.0843 47.2129 56.0782 47.1712C56.0663 47.0901 56.0534 47.0021 56.04 46.9276L56.0401 46.9276L56.0391 46.9224L55.9836 46.6303L55.9833 46.6291L55.9625 46.517L67.5505 43.2147L67.6626 43.5627L67.663 43.564L67.7982 43.988C67.8284 44.0858 67.8566 44.1857 67.888 44.2965C67.9046 44.3552 67.9221 44.417 67.9411 44.4832C67.9413 44.4836 67.9414 44.4841 67.9415 44.4845L68.1038 45.0585L68.1045 45.0607L68.1893 45.3661L68.2691 45.6876C68.2692 45.6881 68.2693 45.6886 68.2695 45.689C68.2973 45.8038 68.3258 45.9187 68.3545 46.0344C68.442 46.3871 68.5313 46.7468 68.607 47.1298L68.6069 47.1298L68.608 47.135L68.7749 47.935C68.8103 48.1207 68.8426 48.3075 68.8761 48.5015C68.8912 48.5888 68.9065 48.6775 68.9225 48.7683L68.9225 48.7683L68.9234 48.7732C69.009 49.2322 69.0733 49.7054 69.1408 50.2013C69.1554 50.3087 69.1701 50.4171 69.1853 50.5266C69.1853 50.5271 69.1854 50.5275 69.1855 50.5279L69.2146 50.7475L69.2389 50.9873L69.2391 50.9891L69.288 51.4865L69.2882 51.4883L69.3355 51.9884L69.3357 51.9903L69.3582 52.238L69.3732 52.4294L69.3732 52.4298L69.4331 53.2004L69.4331 53.2008L69.4479 53.3924L69.4479 53.3925L69.4489 53.4058L69.4502 53.5195L69.4503 53.5268L69.4506 53.5341L69.4511 53.5474L69.4511 53.5486L69.4533 53.6054L69.4533 53.6055L69.4577 53.7204L69.4577 53.7211L69.4745 54.1812L69.4746 54.1819L69.4903 54.6337L69.4951 55.0803C69.4954 55.1867 69.4966 55.2878 69.4977 55.3858C69.5 55.5826 69.5021 55.7669 69.4968 55.956H69.4967L69.4967 55.9604L69.4803 56.8193L69.4492 57.514ZM55.8428 46.5511L55.8429 46.5511C55.8428 46.5511 55.8429 46.5511 55.8428 46.5511Z"
        stroke="#8A919D" />
    <path
        d="M49.0807 33.0373L48.8306 32.7729C48.7747 32.7138 48.7081 32.6488 48.6575 32.5993C48.6352 32.5776 48.616 32.5589 48.6023 32.545L48.5998 32.5425L48.5054 32.4492L54.6938 24.9585L54.9685 25.1693C55.0113 25.2028 55.0515 25.2335 55.091 25.2637C55.1606 25.317 55.2279 25.3686 55.3038 25.4305C55.304 25.4306 55.3042 25.4308 55.3043 25.4309L55.7015 25.7566L55.7024 25.7574L56.1495 26.1258L56.6327 26.5482C56.697 26.6055 56.7584 26.6591 56.8184 26.7114C56.9308 26.8094 57.0381 26.903 57.1502 27.0087L57.1513 27.0098L57.7056 27.5286L57.7056 27.5286L57.7093 27.532C57.8736 27.6828 58.0354 27.8445 58.2099 28.0189C58.2289 28.0378 58.248 28.057 58.2673 28.0763C58.3374 28.1471 58.4053 28.2146 58.472 28.2809C58.5996 28.4077 58.7227 28.5301 58.8475 28.6625C58.8476 28.6626 58.8477 28.6627 58.8478 28.6628L59.441 29.2946L59.441 29.2946L59.4437 29.2975C59.538 29.3962 59.6309 29.5 59.7258 29.6088L59.7275 29.6107L60.0225 29.9457L60.0232 29.9465L60.3191 30.2836C60.3193 30.2839 60.3195 30.2841 60.3197 30.2843C60.3806 30.3542 60.4357 30.4212 60.4957 30.4941C60.5289 30.5345 60.5635 30.5767 60.6015 30.6221C60.6617 30.6955 60.7212 30.7673 60.78 30.8385C60.913 30.9994 61.043 31.1565 61.1716 31.3182L61.727 32.0372L61.7279 32.0382L61.8617 32.2125L61.9906 32.3901L61.9911 32.3908L62.2556 32.7566L62.2555 32.7566L62.2591 32.7614C62.5173 33.1099 62.753 33.4618 62.9917 33.8181C63.0752 33.9427 63.159 34.0678 63.2442 34.1935L63.6889 34.8997L63.69 34.9015L63.9025 35.242L64.101 35.5802L64.1016 35.5812L64.4858 36.2395C64.5667 36.3843 64.6428 36.5247 64.7187 36.6649C64.7539 36.7299 64.7891 36.7948 64.8247 36.86C64.8249 36.8604 64.825 36.8607 64.8252 36.861L64.9837 37.1536C64.984 37.1542 64.9843 37.1548 64.9846 37.1554C65.0061 37.1957 65.0245 37.2295 65.0413 37.2604C65.0733 37.319 65.0994 37.367 65.1295 37.4291L65.1295 37.4291L65.1318 37.4337L65.4175 38.0088L65.4185 38.0108L65.6662 38.5151C65.7254 38.6401 65.78 38.7549 65.8294 38.8587C65.8294 38.8588 65.8294 38.8588 65.8295 38.8589L65.9057 39.0199L55.1618 43.3364L55.105 43.1661L55.1048 43.1657L54.9889 42.8197L54.9889 42.8196L54.9865 42.8127L54.8837 42.5207L54.8823 42.5167L54.7699 42.188C54.7509 42.1281 54.7183 42.0464 54.6993 41.9988C54.6937 41.9848 54.6892 41.9737 54.6867 41.967L54.6867 41.967L54.6849 41.9622L54.6008 41.7478L54.6005 41.7472L54.422 41.2911L54.4189 41.2834L54.4157 41.2758L54.2093 40.7953L54.2086 40.7936L54.1017 40.5424L54.0983 40.5343L54.0945 40.5263L53.9761 40.2728L53.9757 40.2721L53.7308 39.7458L53.726 39.7356L53.7208 39.7257C53.6661 39.6208 53.6089 39.5069 53.5492 39.3882C53.4265 39.1442 53.2936 38.8799 53.1522 38.6322L53.0048 38.3626L53.0042 38.3615L52.9296 38.2243L52.9251 38.2162L52.9204 38.2082L52.8408 38.0739L52.8401 38.0728L52.5188 37.5279L52.5189 37.5278L52.5148 37.5211C52.4481 37.412 52.3737 37.2955 52.3028 37.1845C52.2572 37.113 52.213 37.0438 52.1733 36.9803L52.1733 36.9803L52.17 36.9751C52.1561 36.9535 52.1394 36.9268 52.1209 36.8975C52.0817 36.8349 52.0349 36.7603 51.9924 36.6978L51.9922 36.6976L51.8156 36.439L51.8148 36.4378L51.6413 36.1824C51.5828 36.0946 51.5194 36.002 51.4506 35.9107L51.0961 35.4242C51.0961 35.4241 51.096 35.424 51.0959 35.4239C51.0185 35.3173 50.9287 35.2031 50.8483 35.101C50.8049 35.0459 50.7643 34.9942 50.7299 34.9492L50.7299 34.9492L50.7273 34.9459C50.7093 34.9228 50.6911 34.8992 50.6726 34.8753C50.5757 34.7502 50.471 34.615 50.3626 34.4892L50.0253 34.0837C49.9506 33.9923 49.8611 33.8929 49.786 33.8093C49.7484 33.7675 49.7143 33.7296 49.6875 33.6987L49.6875 33.6987L49.6839 33.6947L49.3782 33.3505L49.3727 33.3442L49.3669 33.3381L49.0818 33.0384L49.0807 33.0373ZM65.968 39.1514C65.9679 39.1513 65.9679 39.1512 65.9678 39.1511L65.9679 39.1514L65.968 39.1514Z"
        stroke="#8A919D" />
    <path
        d="M35.398 25.9592C35.2585 25.93 35.1244 25.8987 34.9948 25.8772C34.8458 25.8516 34.7043 25.8273 34.5714 25.8045C34.4382 25.7813 34.3135 25.7596 34.1983 25.7395C34.0823 25.7237 33.9759 25.7092 33.8797 25.696C33.7747 25.6817 33.6821 25.6689 33.6026 25.658C33.4161 25.6324 33.2805 25.4687 33.2895 25.2807L33.655 17.6487C33.6644 17.4533 33.8263 17.3004 34.0219 17.3028C34.1453 17.3042 34.2991 17.3061 34.4804 17.3083C34.6092 17.3104 34.7519 17.3126 34.9071 17.3151C35.0622 17.3225 35.2301 17.3304 35.4095 17.3389C35.5891 17.3477 35.7802 17.3571 35.9817 17.367C36.1835 17.3766 36.3943 17.3989 36.6154 17.4159C36.8363 17.4348 37.0666 17.4545 37.3049 17.475C37.5425 17.5032 37.7883 17.5324 38.0409 17.5624C38.1674 17.5778 38.2956 17.5933 38.4254 17.609C38.5552 17.6252 38.6854 17.6478 38.8178 17.6675C39.0109 17.6976 39.208 17.7284 39.4067 17.7595"
        stroke="#8A919D" />
    <path
        d="M39.2354 17.7227C39.3026 17.7482 46.3022 19.6577 46.3689 19.6829C46.6322 19.7819 46.8842 19.894 47.1348 19.9966C47.3843 20.1014 47.6301 20.2012 47.863 20.3112C48.0974 20.4187 48.3256 20.5232 48.5463 20.6243C48.768 20.7242 48.9747 20.8342 49.1774 20.9331C49.3792 21.0342 49.5725 21.1311 49.7565 21.2233C49.9496 21.3286 50.1328 21.4284 50.305 21.5222C50.477 21.617 50.6381 21.7056 50.787 21.7877C50.8513 21.8241 50.913 21.8591 50.972 21.8924C51.0262 21.9235 51.0778 21.9531 51.1268 21.9812C51.2335 22.0425 51.3278 22.0965 51.4085 22.1428C51.5901 22.2469 51.6459 22.4822 51.5309 22.6571L46.2971 30.6294C46.1823 30.8044 45.9443 30.8467 45.7766 30.7215C45.702 30.6659 45.6149 30.6009 45.5162 30.5273C45.4711 30.4936 45.4234 30.458 45.3734 30.4206C45.3248 30.3845 45.2653 30.3394 45.2293 30.3147C45.1461 30.2551 45.0561 30.1907 44.9601 30.1218C44.8641 30.0519 44.762 29.9776 44.6543 29.8993C44.5315 29.8179 44.4026 29.7323 44.2677 29.643C44.1519 29.568 35.3475 25.9826 35.2227 25.9042"
        stroke="#8A919D" />
    <path
        d="M27.2587 26.1351C27.3598 26.1217 27.459 26.1052 27.5581 26.0948C27.6572 26.0847 27.7552 26.0748 27.8517 26.0649C28.0444 26.0449 28.2318 26.0255 28.4131 26.0066C28.5949 25.9945 28.7707 25.9827 28.9393 25.9713C29.0235 25.9656 29.1059 25.96 29.1864 25.9545C29.2667 25.9491 29.3472 25.9422 29.4161 25.9422C29.5583 25.9384 29.6932 25.9349 29.8199 25.9316C29.9462 25.9276 30.0642 25.9239 30.1735 25.9204C30.3083 25.9195 30.4321 25.9187 30.5438 25.918C30.6669 25.9173 30.7756 25.9167 30.8686 25.9162C31.0779 25.9151 31.2423 25.7379 31.2286 25.5291L30.7575 18.3397C30.7437 18.1309 30.5576 17.9767 30.35 18.0029C30.2577 18.0146 30.1499 18.0282 30.0278 18.0436C29.9146 18.058 29.7893 18.0739 29.6528 18.0913C29.4916 18.1153 29.3173 18.1411 29.1309 18.1687C28.9452 18.197 28.7474 18.2271 28.5389 18.2589C28.4322 18.2739 28.334 18.2939 28.2309 18.3133C28.1282 18.3329 28.023 18.3531 27.9156 18.3735C27.7013 18.415 27.4781 18.4581 27.2469 18.5028C27.0175 18.555 26.7802 18.6091 26.5364 18.6646C26.4148 18.6925 26.2914 18.7209 26.1666 18.7496C26.0419 18.7788 25.9169 18.8145 25.7901 18.8473C25.537 18.9147 25.2786 18.9836 25.0157 19.0536C24.7554 19.132 24.4908 19.2118 24.223 19.2925C24.0895 19.3339 23.9546 19.3728 23.8205 19.417C23.687 19.4626 23.5525 19.5084 23.4177 19.5544C23.2831 19.6005 23.1479 19.6468 23.0124 19.6933C22.8768 19.7394 22.741 19.7858 22.6071 19.8386C22.3385 19.9411 22.0689 20.044 21.7993 20.147C21.5308 20.252 21.2668 20.3685 21.0022 20.4786C20.8703 20.5348 20.7381 20.5891 20.6077 20.6468C20.4783 20.7065 20.3493 20.7661 20.2207 20.8255C20.0924 20.8848 19.9645 20.9441 19.8374 21.003C19.7103 21.0618 19.5837 21.1197 19.4607 21.1836C19.2137 21.3082 18.9697 21.4314 18.7298 21.5526C18.4898 21.6729 18.2611 21.8057 18.034 21.9279C17.8078 22.0524 17.5854 22.1712 17.3757 22.2992C17.1647 22.4243 16.9595 22.5461 16.761 22.6639C16.5619 22.78 16.3772 22.9054 16.1963 23.0187C16.0166 23.1339 15.8444 23.2444 15.6806 23.3494C15.5203 23.4594 15.3682 23.5637 15.2253 23.6618C15.0828 23.7599 14.9495 23.8517 14.8261 23.9367C14.7029 24.0216 14.5939 24.1059 14.4935 24.1787C14.3574 24.2792 14.2412 24.3649 14.1472 24.4344C13.9902 24.5503 13.9533 24.7692 14.0631 24.9306L17.0484 29.3197C17.1547 29.4759 17.3624 29.5249 17.5269 29.432C17.6028 29.3892 17.6924 29.3386 17.7946 29.281C17.8836 29.2317 17.98 29.1735 18.0888 29.1168C18.1976 29.0601 18.3152 28.9989 18.4408 28.9335C18.5661 28.868 18.6995 28.7983 18.84 28.7248C18.9829 28.6563 19.1332 28.5842 19.29 28.5091C19.4475 28.4357 19.6073 28.3516 19.7797 28.2783C19.9507 28.2032 20.1275 28.1256 20.3094 28.0458C20.4894 27.9629 20.6801 27.8905 20.873 27.8131C21.0669 27.738 21.2612 27.6529 21.4646 27.5811C21.6672 27.5081 21.8732 27.4339 22.0816 27.3587C22.185 27.3195 22.2914 27.2862 22.398 27.2522C22.5044 27.2179 22.6114 27.1835 22.7188 27.1489C22.8259 27.1143 22.9335 27.0795 23.0414 27.0446C23.1498 27.0117 23.2598 26.9822 23.3691 26.9507C23.5886 26.8899 23.8067 26.8226 24.0277 26.7662C24.2489 26.7114 24.4701 26.6567 24.6904 26.6022C24.7998 26.5731 24.9107 26.5503 25.0212 26.5276C25.1314 26.5044 25.2414 26.4812 25.3509 26.4582C25.4601 26.435 25.569 26.4119 25.6773 26.3889C25.7858 26.3672 25.8949 26.3505 26.0026 26.3311C26.2179 26.2938 26.4305 26.2568 26.6398 26.2205C26.8498 26.1916 27.0563 26.163 27.2587 26.1351Z"
        fill="#8A919D" />
    <path
        d="M6.49778 31.3318C6.41952 31.4425 6.34098 31.5537 6.26206 31.6653C6.18337 31.7769 6.10438 31.8889 6.02509 32.0012C5.94618 32.1137 5.87234 32.2305 5.79557 32.3453C5.64422 32.5764 5.48934 32.8058 5.34108 33.0395C5.19629 33.2752 5.0515 33.5109 4.90731 33.7458L4.79973 33.9216L4.6976 34.1003C4.62974 34.219 4.5621 34.3376 4.49467 34.4556C4.2191 34.9237 3.9797 35.4022 3.73639 35.8567C3.62314 36.0884 3.51173 36.3163 3.40268 36.5394C3.34859 36.6508 3.29502 36.7612 3.24219 36.8701C3.19246 36.9805 3.14338 37.0896 3.0949 37.1974C2.99837 37.4124 2.9045 37.6216 2.81365 37.824C2.72891 38.0289 2.64697 38.2268 2.56835 38.4167C2.49128 38.6073 2.41339 38.7876 2.34701 38.9626C2.2815 39.1378 2.21931 39.304 2.16081 39.4601C2.1026 39.6161 2.04814 39.7621 1.99782 39.8971C1.95132 40.0334 1.90866 40.1586 1.87005 40.2717C1.81994 40.4204 1.77691 40.548 1.74176 40.6525C1.6795 40.8371 1.77419 41.0375 1.95619 41.1073L4.73481 42.1725C4.91165 42.2403 5.11082 42.1612 5.19254 41.9903C5.23306 41.9057 5.28147 41.8044 5.3371 41.688C5.38323 41.5922 5.43422 41.486 5.48985 41.3704C5.54895 41.2564 5.61283 41.1333 5.68114 41.0017C5.74922 40.8704 5.82158 40.7305 5.89791 40.5831C5.97484 40.4362 6.06341 40.2855 6.15131 40.1264C6.24032 39.9681 6.33309 39.8031 6.4291 39.6323C6.53027 39.4648 6.63483 39.2915 6.74241 39.1134C6.79597 39.0244 6.85028 38.9343 6.90525 38.8431C6.96309 38.7536 7.02167 38.6631 7.08084 38.5713C7.19917 38.3886 7.32009 38.202 7.44307 38.0121C7.70435 37.6422 7.95989 37.2526 8.24866 36.8769C8.31917 36.7819 8.38998 36.6866 8.46101 36.5911L8.56749 36.4476L8.67904 36.3073C8.82759 36.1202 8.97673 35.9326 9.12586 35.7449C9.27773 35.5595 9.43534 35.3789 9.58853 35.1968C9.66619 35.1063 9.74076 35.0141 9.82026 34.9262C9.89984 34.8384 9.97913 34.7509 10.0581 34.6637C10.137 34.5766 10.2154 34.4899 10.2935 34.4035C10.3709 34.3167 10.449 34.2315 10.5301 34.1498C10.6897 33.9845 10.8474 33.8212 11.0025 33.6605C11.1573 33.5001 11.3189 33.3513 11.4714 33.2008C11.6252 33.0514 11.7738 32.9041 11.927 32.769C12.0776 32.632 12.2241 32.4987 12.3658 32.3696C12.5064 32.2399 12.6513 32.1241 12.7851 32.0078C12.9198 31.8931 13.0489 31.7831 13.1716 31.6786C13.2922 31.5831 13.4065 31.4927 13.514 31.4075C13.6208 31.3224 13.7208 31.2428 13.8133 31.1691C13.8557 31.134 13.9132 31.092 13.9617 31.0551C14.0116 31.0175 14.0591 30.9817 14.1042 30.9477C14.2024 30.8735 14.2891 30.8081 14.3634 30.7521C14.5304 30.626 14.5563 30.3856 14.4204 30.2265L11.2568 26.5202C11.1209 26.3611 10.8795 26.3489 10.7288 26.4941C10.6618 26.5586 10.5835 26.634 10.4949 26.7194C10.4542 26.7585 10.4114 26.7999 10.3664 26.8431C10.3207 26.8875 10.2771 26.928 10.2204 26.986C10.1119 27.0954 9.99467 27.2138 9.86934 27.3403C9.74466 27.4668 9.61196 27.6014 9.47203 27.7433C9.34198 27.8842 9.20522 28.0323 9.06257 28.1868C8.92169 28.3425 8.76975 28.4994 8.62275 28.6714C8.47516 28.8425 8.32263 29.0194 8.16576 29.2011C8.00697 29.3808 7.85334 29.5738 7.69529 29.7696C7.53842 29.9664 7.37307 30.1627 7.21531 30.3708C7.058 30.5789 6.8981 30.7904 6.73629 31.0047C6.65406 31.1109 6.57544 31.2205 6.49778 31.3318Z"
        fill="#8A919D" />
    <path
        d="M0.748262 44.3258C0.729767 44.4168 0.708104 44.5235 0.683567 44.6441C0.661093 44.7547 0.636188 44.8774 0.609072 45.0108C0.582472 45.1473 0.556462 45.3084 0.52743 45.4729C0.498841 45.639 0.468483 45.8156 0.436504 46.0019C0.421031 46.0948 0.403347 46.1907 0.388683 46.2874C0.375641 46.3836 0.362378 46.4819 0.348747 46.5822C0.296873 46.984 0.228568 47.4163 0.189221 47.8781C0.166379 48.1083 0.142947 48.3446 0.119 48.5862C0.0992524 48.8281 0.086063 49.0758 0.069042 49.3269C0.0292526 49.8288 0.0219578 50.3493 0.00537894 50.8758L0 51.0737L0.000957893 51.2725C0.00169473 51.4052 0.00243157 51.5381 0.00316841 51.6714C0.00397894 51.8045 0.00478946 51.9379 0.0055263 52.0713L0.00677893 52.2715L0.0144421 52.4719C0.0252736 52.7384 0.0361052 53.0051 0.0469367 53.2706L0.0551157 53.4692L0.0576209 53.5335L0.0611578 53.5814L0.0682314 53.6771C0.077663 53.8048 0.0870209 53.932 0.0963787 54.0588C0.105737 54.1856 0.115094 54.3119 0.124305 54.4375C0.137052 54.5684 0.149652 54.699 0.162326 54.8287C0.175073 54.9582 0.187747 55.0869 0.200347 55.2148C0.206684 55.2785 0.213021 55.3422 0.219357 55.4055C0.227242 55.4678 0.235126 55.5299 0.242936 55.5918C0.274326 55.8387 0.305199 56.0815 0.33541 56.3192C0.371883 56.5558 0.407546 56.7873 0.442178 57.0127C0.474599 57.2379 0.516378 57.4558 0.554767 57.6665C0.557936 57.6833 0.561104 57.7 0.564199 57.7167C0.596251 57.889 0.746125 58.0137 0.921272 58.0137H1.90061C2.10972 58.0137 2.27566 57.8377 2.26335 57.629C2.26004 57.5733 2.25665 57.517 2.25289 57.4602C2.24066 57.2572 2.22592 57.0477 2.22121 56.8316C2.21413 56.6159 2.20691 56.3942 2.19947 56.1677C2.19807 55.9414 2.19667 55.7101 2.19527 55.4748C2.1949 55.4161 2.19453 55.3571 2.19416 55.298C2.19542 55.2397 2.19674 55.1811 2.19807 55.1222C2.20065 55.0049 2.20323 54.8867 2.20588 54.7677C2.20846 54.649 2.21111 54.5294 2.21376 54.4092C2.21966 54.2834 2.22548 54.1569 2.23145 54.03C2.23734 53.9031 2.24331 53.7756 2.24921 53.6477L2.2537 53.5517L2.25591 53.5037L2.25621 53.4976C2.25621 53.4824 2.2565 53.5117 2.25665 53.5067L2.25753 53.4951L2.25937 53.4719L2.27426 53.286C2.29401 53.0381 2.31383 52.7894 2.33372 52.5406L2.3489 52.3544L2.37034 52.1686C2.38464 52.045 2.39886 51.9215 2.41308 51.7982C2.42723 51.675 2.44137 51.5521 2.45545 51.4296L2.47645 51.2463L2.50364 51.0642C2.57821 50.5801 2.64157 50.1039 2.73442 49.648C2.77796 49.4195 2.81694 49.1948 2.86167 48.976C2.91037 48.7581 2.95797 48.545 3.00432 48.3375C3.09009 47.9218 3.20128 47.5354 3.29176 47.1773C3.31497 47.0879 3.33767 47.0003 3.35985 46.9148C3.38328 46.8306 3.40855 46.7508 3.43183 46.6719C3.47877 46.5147 3.52335 46.3656 3.5652 46.2254C3.60801 46.0841 3.64316 45.9577 3.68413 45.8309C3.72709 45.7015 3.76643 45.583 3.8021 45.4757C3.84085 45.3589 3.87512 45.2557 3.90444 45.1673C3.97039 44.9689 3.85522 44.7561 3.65303 44.7023L1.19796 44.0476C0.995693 43.9936 0.789967 44.1207 0.748262 44.3258Z"
        fill="#8A919D" />
    <path
        d="M33.3816 57.8666L33.5283 58.3446C30.2808 59.341 26.8403 57.5159 25.8439 54.2683L18.3068 29.7012L15.6032 20.8889L13.7705 14.9153L13.7704 14.9152C13.5911 14.3304 13.7801 13.8008 14.1432 13.4608C14.4411 13.182 14.8555 13.0296 15.2714 13.0621C15.7038 13.0959 16.1184 13.3292 16.3779 13.7763L15.9455 14.0274L16.3779 13.7763L19.3934 18.9711L24.2614 27.3569L37.0438 49.3763L37.0453 49.379C37.2666 49.7656 37.4667 50.2104 37.6047 50.6603L33.3816 57.8666ZM33.3816 57.8666L33.5283 58.3446C34.4526 58.061 35.2631 57.5786 35.9256 56.9585M33.3816 57.8666L35.9256 56.9585M35.9256 56.9585C37.5862 55.404 38.3175 52.9836 37.6047 50.6604L35.9256 56.9585ZM30.2251 50.5621C31.1402 49.7055 32.5764 49.7528 33.4331 50.668C34.2896 51.583 34.2423 53.0194 33.3272 53.876C32.4121 54.7326 30.9757 54.6851 30.1192 53.7701C29.2624 52.8549 29.3099 51.4187 30.2251 50.5621Z"
        fill="#8A919D" stroke="white" />
</svg>